Coordinates
version=1
nRows=19
nColumns=24
inDegrees=yes

Units are S.I. units (second, meters, Newtons, ...)
Angles are in degrees.

endheader
time	pelvis_tilt	pelvis_list	pelvis_rotation	pelvis_tx	pelvis_ty	pelvis_tz	hip_flexion_r	hip_adduction_r	hip_rotation_r	knee_angle_r	ankle_angle_r	subtalar_angle_r	mtp_angle_r	hip_flexion_l	hip_adduction_l	hip_rotation_l	knee_angle_l	ankle_angle_l	subtalar_angle_l	mtp_angle_l	lumbar_extension	lumbar_bending	lumbar_rotation
      0.70016667	     -0.63621294	     -3.75234831	     -3.93210148	     -0.53034785	      1.01260174	      0.31379236	     12.87155179	      6.80900144	     -2.97707205	    -17.14206912	     -0.27749709	    -11.90080278	     -0.66028846	     20.14103067	     -9.46687075	     -8.98492306	    -74.33118792	      1.61570437	    -14.51190518	     -9.25542704	    -11.91265140	      5.78021151	      7.15407224
      0.70433333	     -0.61106674	     -3.65306023	     -4.00273721	     -0.52482401	      1.01364775	      0.31415896	     12.33822881	      6.72789144	     -2.84386687	    -16.82808697	     -0.17514656	    -11.88107092	     -0.65443022	     20.73331330	     -9.35734979	     -8.99051509	    -74.16247905	      1.83856768	    -14.50003735	     -9.27892584	    -11.91979274	      5.64700373	      7.22817847
      0.70850000	     -0.45781414	     -3.52479223	     -4.11553501	     -0.51935150	      1.01491108	      0.31464733	     11.66806072	      6.61931763	     -2.65481783	    -16.50674935	     -0.10488283	    -11.84521416	     -0.62951897	     21.13936447	     -9.23177901	     -9.06438107	    -73.88664553	      2.13519050	    -14.31460105	     -9.42078078	    -12.10743160	      5.43105510	      7.53540596
      0.71266667	     -0.45402403	     -3.42336457	     -4.18209454	     -0.51385523	      1.01585925	      0.31497123	     11.16219101	      6.53019327	     -2.52939935	    -16.19201877	     -0.03833106	    -11.84894219	     -0.62595344	     21.72715882	     -9.11107797	     -9.08498374	    -73.58270529	      2.36387249	    -14.35935055	     -9.44262244	    -12.09472155	      5.30577292	      7.57445234
      0.71683333	     -0.38178113	     -3.27190438	     -4.26340951	     -0.50840124	      1.01693633	      0.31530446	     10.59153461	      6.38155584	     -2.38736501	    -15.87751879	     -0.04233750	    -11.85819337	     -0.61883945	     22.20259328	     -8.92783867	     -9.13728615	    -73.16797544	      2.62529605	    -14.30335225	     -9.51007261	    -12.18802815	      5.08638865	      7.70773674
      0.72100000	     -0.20064863	     -3.14521408	     -4.39608720	     -0.50285231	      1.01821707	      0.31582790	      9.86543259	      6.27112974	     -2.16285416	    -15.50606995	      0.02683380	    -11.85365715	     -0.60498010	     22.49796771	     -8.81419112	     -9.28906714	    -72.64066694	      2.77779993	    -14.28314457	     -9.67165137	    -12.38536908	      4.87529818	      7.93489768
      0.72516667	     -0.12093006	     -3.01894164	     -4.48617287	     -0.49731359	      1.01926246	      0.31620382	      9.26175256	      6.14907918	     -2.00507054	    -15.15363549	      0.05084779	    -11.87201272	     -0.59825638	     22.91187229	     -8.67410320	     -9.38660243	    -72.07750312	      2.95868906	    -14.28367124	     -9.82338849	    -12.46123656	      4.69467477	      8.04885027
      0.72933333	     -0.14711344	     -2.94533459	     -4.54137622	     -0.49176462	      1.02003642	      0.31648629	      8.77564737	      6.07814643	     -1.91754655	    -14.81397159	      0.09559027	    -11.85454565	     -0.59785176	     23.45134301	     -8.58273575	     -9.43503552	    -71.50312728	      3.16622138	    -14.32152860	     -9.85026770	    -12.40489856	      4.59189466	      8.08852723
      0.73350000	      0.01640938	     -2.78146667	     -4.66136916	     -0.48621474	      1.02121464	      0.31691568	      8.07786406	      5.90915419	     -1.72274280	    -14.44814900	      0.12027526	    -11.84931622	     -0.60190776	     23.69867454	     -8.40703039	     -9.60477901	    -70.74918722	      3.27864203	    -14.34348872	     -9.99711534	    -12.58744154	      4.33790866	      8.25845063
      0.73766667	      0.13483464	     -2.68105837	     -4.74398736	     -0.48064961	      1.02222273	      0.31727978	      7.41666500	      5.80292989	     -1.58347145	    -14.06198462	      0.12429575	    -11.86031289	     -0.61268857	     23.99755660	     -8.29306141	     -9.72760783	    -69.97819471	      3.43643367	    -14.35831981	    -10.14694538	    -12.70522889	      4.17432948	      8.37626610
      0.74183333	      0.10738537	     -2.59716013	     -4.79790920	     -0.47508764	      1.02290521	      0.31752128	      6.93059102	      5.71257026	     -1.49684137	    -13.71198417	      0.11801997	    -11.83794158	     -0.61817620	     24.46180373	     -8.18198139	     -9.80080089	    -69.18830823	      3.61698246	    -14.37985964	    -10.19336263	    -12.65442139	      4.06053568	      8.42451074
      0.74600000	      0.28953557	     -2.46551788	     -4.91277703	     -0.46949649	      1.02398488	      0.31796272	      6.20016328	      5.56813610	     -1.32935258	    -13.32597024	      0.17861862	    -11.83079873	     -0.63820191	     24.61497251	     -8.04749127	    -10.00108970	    -68.24147868	      3.68753658	    -14.43938200	    -10.33661267	    -12.84512945	      3.83077164	      8.56191477
      0.75016667	      0.38099053	     -2.36967792	     -4.99410968	     -0.46388786	      1.02482906	      0.31829498	      5.56981807	      5.45817642	     -1.21340262	    -12.94622877	      0.19354361	    -11.83045828	     -0.66379118	     24.86583152	     -7.93772080	    -10.14943588	    -67.27447047	      3.81916409	    -14.44545904	    -10.47814150	    -12.92503125	      3.67374247	      8.67077769
      0.75433333	      0.46880309	     -2.27919172	     -5.07790335	     -0.45829766	      1.02561593	      0.31862316	      4.94617699	      5.35234279	     -1.09438729	    -12.56888531	      0.21486403	    -11.81462351	     -0.69512841	     25.09749379	     -7.83309128	    -10.30622070	    -66.24838382	      3.94039761	    -14.47528073	    -10.62489710	    -13.00710715	      3.52017668	      8.76510738
      0.75850000	      0.57758518	     -2.20390414	     -5.16202287	     -0.45268842	      1.02638466	      0.31895094	      4.29609780	      5.25794703	     -0.98582259	    -12.18508020	      0.22125358	    -11.79012250	     -0.73498917	     25.27736437	     -7.74698567	    -10.47534152	    -65.16332179	      4.07757610	    -14.49759840	    -10.78991386	    -13.10841882	      3.38296974	      8.86219744
      0.76266667	      0.64759095	     -2.12226743	     -5.23301762	     -0.44708388	      1.02703343	      0.31924393	      3.69804149	      5.15668107	     -0.89510339	    -11.82390277	      0.26925969	    -11.79573342	     -0.77324743	     25.48054920	     -7.64761306	    -10.63385918	    -64.01779679	      4.17118586	    -14.50647295	    -10.93271797	    -13.16472033	      3.24158335	      8.93989994
      0.76683333	      0.71211623	     -2.05734685	     -5.31423886	     -0.44146297	      1.02762699	      0.31954635	      3.10141426	      5.07247060	     -0.79557603	    -11.45139291	      0.28058020	    -11.76835874	     -0.82116411	     25.65925277	     -7.57208289	    -10.80877591	    -62.81898268	      4.29653832	    -14.50674472	    -11.09987192	    -13.21418264	      3.11994747	      9.03656254
      0.77100000	      0.76003443	     -1.99444742	     -5.37767441	     -0.43584181	      1.02812378	      0.31981332	      2.53248061	      4.98873404	     -0.73350248	    -11.10323963	      0.33310781	    -11.78716943	     -0.86270039	     25.83682426	     -7.49253041	    -10.97331642	    -61.56482477	      4.39493440	    -14.49310262	    -11.23399473	    -13.23646851	      3.00093695	      9.10565170
      0.77516667	      0.69556394	     -1.97238767	     -5.40102781	     -0.43025830	      1.02833286	      0.31994167	      2.09206088	      4.95284546	     -0.69527450	    -10.76696921	      0.33136562	    -11.78004171	     -0.88023947	     26.14552581	     -7.43316253	    -11.05926616	    -60.30343576	      4.53333386	    -14.43728836	    -11.28456211	    -13.14221866	      2.96465527	      9.15099998
